<svg xmlns="http://www.w3.org/2000/svg" width="100" height="79" viewBox="0 0 100 79">
    <g fill="none" fill-rule="evenodd">
        <g fill-rule="nonzero">
            <g>
                <g>
                    <g>
                        <g>
                            <path fill="#FFF" d="M68.881 5.619c.193-.009.356-.145.394-.332l.792-4.32c.02-.082.002-.168-.051-.233s-.134-.102-.219-.1L60.355.613 55.385.6 51.574.59l-4.638-.01c-.193.006-.356.143-.394.33l-.853 4.654-4.604 25.08-.044.068 7.912 3.884c.111.058.17.183.141.304l-1.208 6.573c-.02.082-.001.168.052.233.053.066.134.103.219.101l4.924-3.313c.193-.008.354-.145.392-.332l4.348-23.758c.037-.186.2-.323.392-.33l4.142.009c.085-.002.166.035.219.1.053.066.072.152.052.234l-3.263 17.771c-.023.106.017.216.105.281.087.066.205.075.302.025l4.66-1.866c.131-.053.227-.167.256-.304l2.979-16.232.855-4.653c.02-.08 0-.167-.053-.232s-.134-.102-.218-.101l-4.638-.01-4.473-.011c-.084.002-.165-.035-.218-.1-.054-.066-.073-.152-.053-.234l.52-2.824c.037-.187.2-.323.392-.33l9.101.02zm-15.05 3.65l-.893 4.934-2.619 14.508c-.02.113-.088.212-.187.27-.1.058-.219.068-.327.029l-2.814-1.405c-.108-.058-.164-.181-.135-.301l3.823-21.169c.035-.185.194-.321.382-.328h3.066c.082-.002.161.035.213.1.051.064.07.15.049.23l-.559 3.132z" transform="translate(-670 -4701) translate(250 4254) translate(420 447)"/>
                            <path fill="#FFC200" d="M69.824 4.944l.752-4.168c.044-.181.002-.373-.114-.519-.116-.145-.293-.228-.479-.224L56.303 0c-.424.017-.781.322-.864.74l-7.48 41.486c-.103.573.443.93.98.64l4.521-2.43c.244-.133.418-.367.474-.64l4.492-24.913c.082-.418.44-.724.863-.74l8.148.02c.424-.015.782-.322.863-.74l.752-4.168c.045-.182.003-.373-.113-.52-.117-.145-.294-.228-.48-.224l-8.147-.019c-.187.006-.365-.078-.482-.224-.117-.147-.158-.34-.112-.522l.242-1.341c.082-.418.44-.725.863-.74l8.148.02c.42-.02.772-.326.853-.74z" transform="translate(-670 -4701) translate(250 4254) translate(420 447)"/>
                            <path fill="#FFF" d="M4.414 54.583L15.492 54.583 14.665 59.46 8.224 59.46 7.898 61.411 14.348 61.411 13.517 66.289 7.055 66.289 5 78.971.395 78.971zM20.122 54.583H31.17L27.113 78.97h-11.04l2.916-17.56h6.435l.325-1.95H19.28l.841-4.878zm1.177 19.162h1.7l1.203-7.549h-1.725L21.3 73.745zM40.17 54.237h6.678L42.642 78.39H31.17l5.491-32.048 5.266-2.792-1.757 10.687zm-3.193 19.508h1.992l2.653-14.517h-1.984l-2.661 14.517z" transform="translate(-670 -4701) translate(250 4254) translate(420 447)"/>
                            <path fill="#FFC200" d="M50.894 54.583h11.052L57.893 78.97H46.848l4.046-24.388zm5.245 4.645h-1.742l-2.323 14.517h1.743l2.322-14.517zM66.732 54.583h11.472L73.998 78.97H62.526l4.206-24.388zm6.246 4.645h-1.992l-2.653 14.517h1.992l2.653-14.517z" transform="translate(-670 -4701) translate(250 4254) translate(420 447)"/>
                            <path fill="#FFF" d="M81.776 54.583L99.689 54.583 95.541 78.971 90.85 78.971 94.135 59.46 92.241 59.46 88.949 78.971 84.223 78.971 87.522 59.46 85.632 59.46 82.35 78.971 77.624 78.971z" transform="translate(-670 -4701) translate(250 4254) translate(420 447)"/>
                        </g>
                    </g>
                </g>
            </g>
        </g>
    </g>
</svg>
