<svg xmlns="http://www.w3.org/2000/svg" width="200" height="145" viewBox="0 0 200 145">
    <g fill="none" fill-rule="evenodd">
        <g fill-rule="nonzero">
            <g>
                <g>
                    <g transform="translate(-430 -1056) translate(350 951) translate(0 75) translate(80 30)">
                        <path fill="#6C63FF" d="M2.33 72.094c3.153 12.44 9.82 23.195 20.358 28.408 21.905 10.834 71.308 5.247 108.18-1.167 19.072-3.318 35.836-12.473 48.014-25.356L2.33 72.094zM195.68 13.534h-20.23c-.96 0-1.748-.726-1.748-1.614 0-.888.788-1.616 1.748-1.616h3.5c-.963 0-1.749-.727-1.749-1.616 0-.89.786-1.614 1.748-1.614h-2.497c-.962 0-1.75-.727-1.75-1.616 0-.89.788-1.614 1.75-1.614h10.559c-2.343-1.007-5.082-1.722-8.238-2.098C149.98-1.67 139.701.589 136.074 2.91c-4.52 2.93-9.54 4.964-14.798 5.994-17.764 3.386-50.986 7.459-81.096-1.298-14.966-4.36-26.09 2.999-32.755 15.3h191.77c-.251-3.574-1-6.877-2.376-9.766-.326.257-.727.395-1.138.393zM.615 46.127c-.777 7.235-.513 14.548.784 21.705l177.62 6.002c4.889-5.178 9.043-11.03 12.34-17.387L.615 46.127zm70.25 15.483h-3.497c.962 0 1.75.729 1.75 1.616 0 .888-.788 1.615-1.75 1.615h-20.23c-.96 0-1.748-.727-1.748-1.615 0-.887.788-1.616 1.748-1.616h3.499c-.962 0-1.748-.726-1.748-1.614 0-.887.786-1.616 1.748-1.616h-2.5c-.961 0-1.749-.726-1.749-1.614 0-.888.788-1.616 1.75-1.616h20.23c.962 0 1.748.727 1.748 1.616 0 .89-.786 1.614-1.748 1.614h2.498c.962 0 1.747.727 1.747 1.616 0 .89-.785 1.614-1.747 1.614zM199.201 23.019L5.285 27.374C2.925 32.976 1.36 39.311.64 45.874h195.163c1.27-3.84 2.213-7.785 2.817-11.791.582-3.857.815-7.587.58-11.064zM40.013 37.298h-3.498c.962 0 1.75.728 1.75 1.616 0 .888-.788 1.616-1.75 1.616h-20.23c-.96 0-1.748-.728-1.748-1.616 0-.888.788-1.616 1.748-1.616h3.499c-.962 0-1.748-.726-1.748-1.614 0-.888.786-1.616 1.748-1.616h-2.5c-.961 0-1.749-.727-1.749-1.614 0-.888.788-1.616 1.75-1.616h20.23c.962 0 1.748.726 1.748 1.616 0 .89-.786 1.614-1.748 1.614h2.498c.962 0 1.747.728 1.747 1.616 0 .888-.785 1.614-1.747 1.614z" opacity=".1"/>
                        <ellipse cx="99.107" cy="137.131" fill="#6C63FF" opacity=".1" rx="81.122" ry="7.62"/>
                        <ellipse cx="147.613" cy="78.529" fill="#575A89" rx="1.633" ry="1.13"/>
                        <ellipse cx="94.372" cy="84.283" fill="#6C63FF" rx="55.989" ry="57.172"/>
                        <path fill="#444053" d="M123.75 113.013c0 9.026-13.895.771-28.792.771-14.896 0-29.963 7.914-29.963-1.112 0-5.146 4.802-12.303 11.691-17.502 5.19-3.917 11.564-6.723 17.967-6.723 6.585 0 13.035 3.037 18.18 7.207 6.494 5.258 10.917 12.322 10.917 17.36z"/>
                        <path fill="#F6F8FB" d="M112.831 95.65c-7.918-1.217-22.24-2.702-36.145-.483 5.19-3.918 11.564-6.724 17.967-6.724 6.583 0 13.033 3.038 18.178 7.207z"/>
                        <path fill="#000" d="M64.995 43.925s-16.866 11.01-16.728 28.232c.138 17.222 16.728-28.232 16.728-28.232z" opacity=".05"/>
                        <path fill="#6C63FF" d="M150.34 12.83s-15.282-.94-13.48 9.994c0 0-.363 1.931 1.358 2.81 0 0 .027-.81 1.566-.536.549.094 1.106.121 1.66.082.75-.052 1.463-.353 2.03-.856 0 0 4.296-1.811 5.967-8.981 0 0 1.236-1.564 1.187-1.965l-2.579 1.123s.88 1.9.181 3.479c0 0-.083-3.408-.578-3.336-.1.017-1.34.658-1.34.658s1.516 3.31.363 5.714c0 0 .434-4.078-.846-5.475l-1.814 1.082s1.77 3.418.57 6.207c0 0 .308-4.277-.952-5.943l-1.646 1.31s1.665 3.369.65 5.682c0 0-.132-4.98-1.005-5.356 0 0-1.44 1.297-1.66 1.83 0 0 1.14 2.444.435 3.733 0 0-.434-3.317-.79-3.335 0 0-1.434 2.197-1.584 3.706 0 0 .063-2.242 1.236-3.916 0 0-1.387.243-2.195 1.162 0 0 .224-1.555 2.541-1.69 0 0 1.185-1.668 1.503-1.768 0 0-2.314-.198-3.717.437 0 0 1.234-1.466 4.14-.8l1.633-1.353s-3.045-.426-4.337.044c0 0 1.486-1.297 4.775-.352l1.77-1.08s-2.598-.57-4.146-.37c0 0 1.633-.9 4.662.075l1.27-.58s-1.903-.382-2.46-.44c-.557-.06-.586-.22-.586-.22 1.209-.2 2.449-.053 3.58.425 0 0 2.683-1.029 2.637-1.201zM134.666 7.969s-6.896-.426-6.09 4.514c0 0-.162.873.613 1.27 0 0 .01-.37.708-.241.247.041.499.054.75.037.338-.025.66-.16.917-.387 0 0 1.94-.82 2.696-4.059 0 0 .559-.706.544-.888l-1.165.508s.4.858.085 1.572c0 0-.038-1.54-.261-1.503-.046 0-.606.296-.606.296s.686 1.496.168 2.582c0 0 .196-1.842-.38-2.474l-.821.489s.8 1.546.258 2.806c0 0 .138-1.933-.43-2.686l-.745.592s.752 1.521.294 2.566c0 0-.06-2.25-.455-2.42 0 0-.65.586-.75.827 0 0 .516 1.111.196 1.688 0 0-.196-1.5-.363-1.505 0 0-.648.991-.715 1.668.032-.63.224-1.24.558-1.77-.374.072-.718.255-.991.525 0 0 .1-.703 1.15-.764 0 0 .536-.752.679-.799 0 0-1.045-.089-1.679.199 0 0 .557-.664 1.871-.371l.726-.61s-1.375-.185-1.96.019c0 0 .672-.586 2.158-.158l.799-.489s-1.173-.258-1.873-.165c0 0 .738-.406 2.107.035l.571-.263s-.86-.172-1.11-.198c-.25-.026-.267-.098-.267-.098.545-.093 1.104-.029 1.615.185 0 0 1.218-.452 1.198-.53z"/>
                        <ellipse cx="194.935" cy="134.444" fill="#6C63FF" opacity=".1" rx="4.887" ry="1"/>
                        <ellipse cx="184.238" cy="143.48" fill="#6C63FF" rx="7.298" ry="1.26"/>
                        <path fill="#6C63FF" d="M187.254 141.421c.333-.277.576-.651.697-1.073.089-.424-.089-.935-.486-1.091-.447-.174-.924.143-1.285.461-.361.32-.777.682-1.25.616.495-.459.718-1.149.587-1.818-.02-.137-.077-.265-.163-.371-.249-.27-.697-.156-.995.057-.943.679-1.207 1.987-1.212 3.166-.094-.425-.015-.868-.016-1.298-.002-.43-.12-.926-.48-1.154-.222-.122-.473-.182-.725-.174-.425-.017-.897.026-1.187.343-.363.394-.267 1.054.047 1.482.314.428.79.706 1.227 1.005.352.213.652.505.878.854.027.049.048.1.065.154h2.66c.594-.31 1.145-.699 1.638-1.159zM10.951 125.882s.996 1.33-.461 3.336c-1.457 2.005-2.659 3.706-2.178 4.96 0 0 2.198-3.733 3.993-3.787 1.795-.054.613-2.265-1.354-4.509z"/>
                        <path fill="#000" d="M10.951 125.882c.087.129.155.27.203.417 1.746 2.094 2.675 4.05.998 4.098-1.564.046-3.448 2.9-3.889 3.62.016.057.034.112.055.166 0 0 2.197-3.733 3.992-3.786 1.795-.054.608-2.27-1.359-4.515z" opacity=".1"/>
                        <path fill="#FFD037" d="M12.804 127.578c0 .469-.053.849-.116.849-.064 0-.114-.371-.114-.85 0-.477.063-.247.128-.247.066 0 .102-.221.102.248z"/>
                        <path fill="#FFD037" d="M13.432 128.138c-.403.224-.753.359-.784.302-.03-.058.272-.284.675-.508.403-.224.243-.061.274 0 .03.061.245-.019-.165.206z"/>
                        <path fill="#6C63FF" d="M5.684 125.882s-.996 1.33.46 3.336c1.455 2.005 2.658 3.706 2.177 4.96 0 0-2.2-3.733-3.993-3.787-1.793-.054-.613-2.265 1.356-4.509z"/>
                        <path fill="#000" d="M5.684 125.882c-.087.128-.156.269-.203.417-1.746 2.094-2.677 4.05-.998 4.098 1.562.046 3.448 2.9 3.887 3.62-.015.057-.032.112-.052.166 0 0-2.2-3.733-3.993-3.786-1.793-.054-.61-2.27 1.36-4.515z" opacity=".1"/>
                        <path fill="#FFD037" d="M3.831 127.578c0 .469.051.849.115.849.063 0 .114-.371.114-.85 0-.477-.064-.247-.127-.247-.064 0-.102-.221-.102.248z"/>
                        <path fill="#FFD037" d="M3.194 128.138c.403.224.755.359.786.302.03-.058-.272-.284-.675-.508-.403-.224-.245-.061-.274 0-.03.061-.24-.019.163.206z"/>
                        <path fill="#A8A8A8" d="M4.149 134.009s2.787-.088 3.63-.7c.842-.61 4.288-1.339 4.497-.37.209.97 4.189 4.874 1.042 4.9-3.147.026-7.313-.502-8.151-1.023-.839-.52-1.018-2.807-1.018-2.807z"/>
                        <path fill="#000" d="M13.37 137.507c-3.147.026-7.312-.502-8.15-1.023-.64-.396-.893-1.821-.979-2.48H4.15s.181 2.297 1.014 2.818c.833.52 5.004 1.049 8.151 1.023.907 0 1.221-.34 1.205-.827-.127.299-.472.484-1.149.49z" opacity=".2"/>
                        <path fill="#444053" d="M74.466 76.787c1.066-.062 6.08-.447 9.265-2.302.512-.308 1.09-.481 1.683-.506 1.012-.03 2.178.402 1.432 2.819-1.209 3.953-8.227 8.4-12.583 8.154-4.189-.237-9.158-1.96-12.439-8.02-.314-.584-.47-1.243-.448-1.908.038-1.223.473-2.756 2.722-1.047 3.038 2.307 8.802 2.745 9.958 2.81.137.007.274.007.41 0zM114.757 76.787c1.065-.062 6.08-.447 9.265-2.302.511-.308 1.09-.481 1.682-.506 1.013-.03 2.178.402 1.432 2.819-1.209 3.953-8.227 8.4-12.582 8.154-4.19-.237-9.158-1.96-12.44-8.02-.314-.584-.469-1.243-.448-1.908.038-1.223.474-2.756 2.722-1.047 3.038 2.307 8.803 2.745 9.959 2.81.136.007.273.007.41 0z"/>
                    </g>
                </g>
            </g>
        </g>
    </g>
</svg>
