<svg xmlns="http://www.w3.org/2000/svg" width="15" height="12" viewBox="0 0 15 12">
    <g fill="none" fill-rule="evenodd">
        <g fill="#F3F3F3">
            <g>
                <g>
                    <path d="M14.999 41.43c-.258.139-1.008.416-1.711.485.446-.231 1.125-1.039 1.289-1.662-.445.277-1.429.67-1.922.67-.585-.554-1.359-.923-2.249-.923-1.711 0-3.094 1.361-3.094 3.046 0 .231.023.461.07.669-2.32-.069-5.038-1.2-6.562-3.162-.937 1.593-.117 3.37.938 4.016-.352.046-1.031-.023-1.336-.323-.024 1.061.492 2.469 2.39 2.977-.375.185-1.007.139-1.289.092.094.9 1.383 2.078 2.766 2.078-.492.553-2.18 1.592-4.289 1.269C1.43 51.516 3.094 52 4.851 52c4.992 0 8.859-3.992 8.672-8.908v-.116c.421-.276 1.031-.83 1.476-1.546z" transform="translate(-1093 -4299) translate(250 4254) translate(843 5)"/>
                </g>
            </g>
        </g>
    </g>
</svg>
