<svg xmlns="http://www.w3.org/2000/svg" width="66" height="46" viewBox="0 0 66 46">
    <g fill="none" fill-rule="evenodd">
        <g>
            <g>
                <g>
                    <g>
                        <g>
                            <path fill="#FFF" stroke="#E6E7E8" d="M.5 3v40c0 1.375 1.125 2.5 2.507 2.5h59.986c1.384 0 2.507-1.12 2.507-2.5V3c0-1.375-1.125-2.5-2.507-2.5H3.007C1.623.5.5 1.62.5 3z" transform="translate(-421 -4438) translate(250 4254) translate(171 184)"/>
                            <g fill="#0742A6">
                                <path d="M19.022 13.744L15.483 13.744 17.697.412 21.236.412zM31.854.738C31.156.468 30.048.17 28.68.17c-3.495 0-5.957 1.816-5.972 4.41-.029 1.916 1.762 2.98 3.102 3.618 1.37.652 1.835 1.078 1.835 1.66-.014.893-1.106 1.305-2.125 1.305-1.414 0-2.17-.213-3.322-.71l-.466-.213-.495 2.993c.83.368 2.36.695 3.948.71 3.714 0 6.132-1.788 6.16-4.553.015-1.518-.931-2.681-2.97-3.631-1.239-.61-1.997-1.022-1.997-1.646.014-.567.641-1.148 2.039-1.148 1.15-.029 1.996.24 2.637.51l.32.142.481-2.88z" transform="translate(-421 -4438) translate(250 4254) translate(171 184) translate(11 16)"/>
                                <path fill-rule="nonzero" d="M36.559 9.02c.291-.765 1.413-3.73 1.413-3.73-.015.03.29-.78.466-1.276l.247 1.15s.67 3.19.816 3.857h-2.942zM40.928.413H38.19c-.844 0-1.486.24-1.85 1.106l-5.258 12.226h3.714l.743-2h4.545c.101.468.422 2 .422 2h3.278L40.928.412z" transform="translate(-421 -4438) translate(250 4254) translate(171 184) translate(11 16)"/>
                                <path d="M12.526.412L9.06 9.503 8.68 7.66C8.04 5.532 6.03 3.22 3.788 2.071L6.962 13.73h3.743L16.27.412h-3.743z" transform="translate(-421 -4438) translate(250 4254) translate(171 184) translate(11 16)"/>
                                <path d="M5.84.412H.147l-.059.27C4.53 1.787 7.472 4.453 8.681 7.66L7.443 1.533C7.239.68 6.613.44 5.84.412z" transform="translate(-421 -4438) translate(250 4254) translate(171 184) translate(11 16)"/>
                            </g>
                        </g>
                    </g>
                </g>
            </g>
        </g>
    </g>
</svg>
