<svg xmlns="http://www.w3.org/2000/svg" width="7" height="14" viewBox="0 0 7 14">
    <g fill="none" fill-rule="evenodd">
        <g fill="#FFF">
            <g>
                <g>
                    <path d="M9.209 2.666c-.118 0-.23.026-.335.076-.105.05-.193.116-.266.198-.073.082-.13.18-.171.294-.041.114-.062.23-.062.348v.821h2.584L10.536 7H8.375v7H5.75V7H4V4.403h1.75v-1.34c.009-.374.057-.741.144-1.101.086-.36.244-.677.472-.95.227-.282.544-.515.95-.697C7.721.133 8.243.028 8.881 0H11v2.666H9.209z" transform="translate(-1097 -4259) translate(250 4254) translate(843 5)"/>
                </g>
            </g>
        </g>
    </g>
</svg>
