<svg xmlns="http://www.w3.org/2000/svg" width="66" height="46" viewBox="0 0 66 46">
    <g fill="none" fill-rule="evenodd">
        <g>
            <g>
                <g>
                    <g>
                        <g>
                            <path fill="#FFF" stroke="#E6E7E8" d="M.5 3v40c0 1.375 1.125 2.5 2.507 2.5h59.986c1.384 0 2.507-1.12 2.507-2.5V3c0-1.375-1.125-2.5-2.507-2.5H3.007C1.623.5.5 1.62.5 3z" transform="translate(-573 -4438) translate(250 4254) translate(171 184) translate(152)"/>
                            <g>
                                <path fill="#5F6368" fill-rule="nonzero" d="M17.026 6.846v4.06h-1.33V.88h3.526c.85-.017 1.672.295 2.283.868.618.539.966 1.31.954 2.116.017.81-.33 1.587-.954 2.128-.616.57-1.377.854-2.283.854h-2.196zm0-4.732v3.5h2.229c.494.015.972-.174 1.315-.518.342-.322.535-.764.535-1.225 0-.462-.193-.904-.535-1.225-.34-.352-.818-.546-1.315-.532h-2.23zM25.522 3.822c.983 0 1.758.255 2.327.764.568.508.852 1.206.852 2.092v4.228h-1.272v-.952h-.057c-.55.784-1.283 1.176-2.197 1.176-.78 0-1.432-.224-1.957-.672-.51-.416-.8-1.033-.788-1.68 0-.71.277-1.274.83-1.693.554-.42 1.293-.63 2.218-.63.79 0 1.44.14 1.95.42V6.58c.004-.44-.198-.86-.549-1.14-.351-.307-.81-.475-1.283-.47-.742 0-1.33.304-1.763.91l-1.17-.714c.644-.896 1.597-1.344 2.859-1.344zm-1.72 4.984c-.002.333.163.646.441.84.294.224.659.343 1.033.336.56 0 1.099-.217 1.495-.601.44-.402.66-.873.66-1.414-.414-.32-.992-.48-1.733-.48-.54 0-.99.126-1.35.379-.365.256-.546.567-.546.94z" transform="translate(-573 -4438) translate(250 4254) translate(171 184) translate(152) translate(15 16)"/>
                                <path fill="#5F6368" d="M36 4.046L31.561 13.93 30.189 13.93 31.836 10.472 28.917 4.046 30.362 4.046 32.472 8.974 32.501 8.974 34.553 4.046z" transform="translate(-573 -4438) translate(250 4254) translate(171 184) translate(152) translate(15 16)"/>
                                <path fill="#4285F4" d="M11.654 5.971c0-.392-.034-.784-.103-1.171H5.945v2.218h3.211c-.133.716-.562 1.349-1.187 1.75v1.44h1.916c1.122-1.002 1.769-2.484 1.769-4.237z" transform="translate(-573 -4438) translate(250 4254) translate(171 184) translate(152) translate(15 16)"/>
                                <path fill="#34A853" d="M5.945 11.6c1.604 0 2.955-.51 3.94-1.39L7.97 8.77c-.534.35-1.22.55-2.024.55-1.55 0-2.867-1.013-3.337-2.378H.633v1.484c1.01 1.946 3.065 3.174 5.312 3.174z" transform="translate(-573 -4438) translate(250 4254) translate(171 184) translate(152) translate(15 16)"/>
                                <path fill="#FBBC04" d="M2.608 6.942c-.25-.715-.25-1.49 0-2.204V3.254H.633C-.21 4.88-.21 6.799.633 8.426l1.975-1.484z" transform="translate(-573 -4438) translate(250 4254) translate(171 184) translate(152) translate(15 16)"/>
                                <path fill="#EA4335" d="M5.945 2.36c.848-.013 1.667.297 2.28.864L9.923 1.58C8.846.6 7.421.063 5.945.08 3.698.08 1.642 1.308.633 3.254l1.975 1.484c.47-1.365 1.786-2.378 3.337-2.378z" transform="translate(-573 -4438) translate(250 4254) translate(171 184) translate(152) translate(15 16)"/>
                            </g>
                        </g>
                    </g>
                </g>
            </g>
        </g>
    </g>
</svg>
