<svg xmlns="http://www.w3.org/2000/svg" xmlns:xlink="http://www.w3.org/1999/xlink" width="173" height="145" viewBox="0 0 173 145">
    <defs>
        <linearGradient id="fsq6bwo5fa" x1="50.004%" x2="50.004%" y1="99.993%" y2=".002%">
            <stop offset="0%" stop-color="gray" stop-opacity=".25"/>
            <stop offset="54%" stop-color="gray" stop-opacity=".12"/>
            <stop offset="100%" stop-color="gray" stop-opacity=".1"/>
        </linearGradient>
        <path id="g4o71mqz4b" d="M4.492 9.272s9.642 2.893 23.143-1.447C41.137 3.485 69.1 14.092 69.1 14.092s22.178 0 54.965-13.981c0 0-14.946 14.464-4.34 23.143 10.608 8.679.966 21.213-11.57 26.035-12.537 4.822-13.5 14.464-12.537 23.626.963 9.162 0 .482 0 .482s-37.607-6.75-47.251 16.398L.635 14.577s-2.893-5.785 3.857-5.305z"/>
    </defs>
    <g fill="none" fill-rule="evenodd">
        <g>
            <g>
                <g>
                    <g transform="translate(-840 -1056) translate(350 951) translate(380 75) translate(110 30)">
                        <path fill="url(#fsq6bwo5fa)" fill-rule="nonzero" d="M168.163 43.545c-.508-.414-.982-.866-1.419-1.354v.349c-3.464-3.535-3.342-7.818-1.923-11.724l.469-.174c2.227-5.888 7.33-10.826 7.33-10.826l-.762.32c.237-.244.372-.38.372-.38-31.65 13.5-53.673 14.288-56.129 14.333-1.514-.572-13.987-5.113-26.054-6.806-3.797-.551-7.566-.828-10.952-.614l-3.802-16.323-.073.043c-.177-1.399-.835-4.446-3.241-6.335-3.213-2.51-.82 9.035-.82 9.035l.263-.124 1.346 14.537-.656.549c-3.803 1.134-7.728 1.81-11.691 2.015.73-.676 1.333-1.479 1.777-2.37.518.107 1.056-.052 1.432-.425.124-.131.23-.28.314-.44.175-.283.316-.586.42-.902.789-2.12 1.65-4.246 1.906-6.492.256-2.246-.164-4.683-1.676-6.367-1.512-1.683-4.269-2.324-6.12-1.024-.479.336-.885.782-1.411 1.038-1.604.776-3.382-.483-4.875-1.455-1.735-1.13-4.027-1.941-5.825-.915-.562.326-1.023.8-1.335 1.369-.493.781-.725 1.7-.662 2.621.103 1.482.902 2.86 1.972 3.882.36.377.801.666 1.29.843.125.038.253.066.382.084-1.204 1.822-1.634 4.05-1.194 6.189l-.665 4.027c-.591.276-.92.88-1.106 1.472-2.782.082-5.628 1.988-5.628 1.988L28.484 44.122c-2.835 1.924-.912 5.467-.912 5.467l6.378 19.133.353-.263c1.308 2.383 5.148 8.962 5.886 5.682.902-3.973-1.907-7.58-1.907-7.58h-.034l-.727-.935-2.669-14.224 3.377-3.354 4.538-.661.202 29.452c-8.302 21.868-7.29 31.89-7.29 31.89l7.29 27.333.93-.154.225.9.082-.029.404 2.017h-.728l-.911 2.735s-4.656-.102-4.555.91c.1 1.013 2.633 2.735 9.112.912l1.822-1.822s.912-.912-.91-2.735h-.13l-.506-3.538.635-.107-5.47-27.34c4.555-3.747 12.755-18.222 12.755-18.222s8.2 14.477 12.756 18.222l-5.466 27.332.635.107-.498 3.539h-.13c-1.822 1.823-.911 2.734-.911 2.734l1.823 1.823c6.482 1.822 9.01.1 9.112-.912.1-1.012-4.555-.911-4.555-.911l-.912-2.734h-.728l.524-2.624.094-.28 1.022.17 7.289-27.335s-.135-15.792-7.213-35.534l14.54 20.39 11.505 18.14c.609-1.467 1.358-2.872 2.237-4.195l8.324-7.777c9.677-5.756 22.594-6.101 30.572-5.627l7.356.795 3.458-18.22c2.016-2.595 5.007-4.833 9.357-6.507 9.022-3.47 16.588-10.838 16.527-18.001.131.147.259.293.38.442.094-3.169-1.28-6.315-4.659-9.081zM68.299 70.572l-.01-.336.42.66-.41-.324z"/>
                        <path fill="#FDB797" fill-rule="nonzero" d="M39.827 66.734h-.035l-1.618-2.088-2.62 2.62.29.434-.33.08s5.287 10.213 6.168 6.336c.88-3.876-1.855-7.382-1.855-7.382z"/>
                        <path fill="#6C63FF" fill-rule="nonzero" d="M50.864 30.246s9.642 2.892 23.144-1.448c13.5-4.34 41.464 6.268 41.464 6.268s22.178 0 54.966-13.982c0 0-14.947 14.464-4.34 23.143 10.607 8.68.965 21.214-11.572 26.036-12.536 4.822-13.499 14.464-12.536 23.625.963 9.162 0 .483 0 .483s-37.607-6.75-47.251 16.397L47.007 35.55s-2.892-5.785 3.857-5.304z"/>
                        <g transform="translate(74.36 34.701)">
                            <mask id="yyvw57pprc" fill="#fff">
                                <use xlink:href="#g4o71mqz4b"/>
                            </mask>
                            <g fill="#000" fill-rule="nonzero" mask="url(#yyvw57pprc)" opacity=".1">
                                <g>
                                    <path d="M.088.034L120.141 86.338 127.373 65.124zM7.32 27.035L73.855 94.535 83.499 87.303z" transform="translate(-47.476 -18.685)"/>
                                </g>
                            </g>
                        </g>
                        <g fill="#000" fill-rule="nonzero" opacity=".1">
                            <path d="M6.936 16.077S16.58 18.97 30.08 14.63c13.5-4.34 41.46 6.27 41.46 6.27s17.942 0 45.406-10.175c2.172-5.743 7.148-10.56 7.148-10.56-32.795 13.983-54.966 13.983-54.966 13.983S41.163 3.54 27.664 7.88C14.164 12.22 4.52 9.327 4.52 9.327-2.23 8.845.664 14.632.664 14.632l1.984 3.129c.414-1.055 1.568-1.878 4.288-1.684zM119.76 23.31c-.495-.404-.958-.846-1.384-1.322-.11 2.846.871 5.678 3.794 8.07.78.63 1.493 1.337 2.132 2.11.093-3.093-1.247-6.163-4.542-8.859z" transform="translate(46.714 20.973)"/>
                        </g>
                        <path fill="#FDB797" fill-rule="nonzero" d="M68.37 133.614L67.481 138.058 63.925 138.058 64.815 131.837z"/>
                        <path fill="#000" fill-rule="nonzero" d="M68.297 134.228L68.047 134.979 64.541 133.978 64.791 133.477z" opacity=".1"/>
                        <path fill="#FDB797" fill-rule="nonzero" d="M45.266 133.614L46.155 138.058 49.709 138.058 48.82 131.837z"/>
                        <path fill="#000" fill-rule="nonzero" d="M45.253 134.228L45.503 135.229 49.011 133.978 49.011 133.477z" opacity=".1"/>
                        <path fill="#FDB797" fill-rule="nonzero" d="M75.891 12.677s-.099-4.454-3.228-6.905c-3.128-2.452-.787 8.806-.787 8.806l4.015-1.9z"/>
                        <path fill="#333" fill-rule="nonzero" d="M49.709 137.17h-4.443l-.888 2.67s-4.542-.1-4.443.888c.1.987 2.567 2.67 8.885.888l1.777-1.777s.889-.892-.888-2.669zM63.925 137.17h4.443l.888 2.67s4.542-.1 4.443.888c-.1.987-2.567 2.67-8.885.888l-1.777-1.777s-.889-.892.888-2.669zM69.252 76.746H44.378c-8.096 21.326-7.108 31.101-7.108 31.101l7.108 26.657 5.339-.888-5.34-26.652c4.443-3.653 12.442-17.772 12.442-17.772s7.995 14.112 12.433 17.772l-5.338 26.658 5.338.888 7.108-26.657s.994-9.781-7.108-31.107z"/>
                        <path fill="#000" fill-rule="nonzero" d="M44.378 77.09s14.11 5.34 24.88 0h-24.88z" opacity=".1"/>
                        <path fill="#3AD29F" fill-rule="nonzero" d="M43.592 44.843l-7.108 7.108 2.67 14.218-3.554 2.67-6.22-18.661s-1.876-3.455.888-5.339l10.664-10.664s4.577-3.066 7.723-1.495c3.146 1.572-5.124 12.05-5.124 12.05"/>
                        <path fill="#3AD29F" fill-rule="nonzero" d="M43.487 44.755l.889 31.99s14.11 5.34 24.88 0l-.888-30.113-.227-.996.164-.49 10.677-8.854c2.927-1.611 1.38-5.227 1.38-5.227L75.902 11.91l-3.789 2.322 1.335 14.403-7.604 6.308-.19-.01v.048l-19.492-.887"/>
                        <rect width="7.108" height="7.997" x="53.313" y="29.698" fill="#FDB797" fill-rule="nonzero" rx="3.018"/>
                        <path fill="#000" fill-rule="nonzero" d="M53.54 33.113c2.285.798 4.809.518 6.863-.762-.512-1.404-1.846-2.34-3.34-2.344-1.787.006-3.293 1.334-3.524 3.106z" opacity=".1"/>
                        <circle cx="55.978" cy="25.256" r="7.997" fill="#FDB797" fill-rule="nonzero"/>
                        <path fill="#000" fill-rule="nonzero" d="M50.424 20.846c-.497.062-1 .034-1.487-.084-.478-.174-.909-.456-1.259-.824-1.045-1.003-1.822-2.341-1.924-3.787-.1-1.445.572-2.976 1.825-3.693 1.754-.999 3.99-.21 5.682.893 1.455.953 3.192 2.175 4.755 1.418.513-.248.91-.684 1.377-1.01 1.806-1.268 4.494-.643 5.968.999 1.474 1.641 1.887 4.017 1.634 6.21-.254 2.192-1.093 4.265-1.863 6.332-.12.408-.323.786-.597 1.111-.938.963-2.694.216-3.312-.978-1.073-2.076 0-5.676-2.536-6.887-2.019-.96-6.095.159-8.263.3z" opacity=".1"/>
                        <path fill="#333" fill-rule="nonzero" d="M50.544 20.647c-.497.063-1 .035-1.487-.084-.478-.173-.908-.455-1.259-.823-1.044-1.003-1.822-2.342-1.923-3.787-.101-1.445.572-2.976 1.824-3.693 1.754-1 3.99-.21 5.682.892 1.455.954 3.192 2.176 4.755 1.419.513-.248.91-.685 1.377-1.01 1.806-1.269 4.494-.643 5.968.998 1.474 1.642 1.888 4.018 1.634 6.21-.254 2.193-1.104 4.266-1.867 6.332-.12.408-.323.787-.596 1.112-.939.963-2.695.216-3.312-.978-1.074-2.076 0-5.676-2.536-6.887-2.01-.96-6.094.16-8.26.3z"/>
                        <ellipse cx="60.421" cy="25.256" fill="#FDB797" fill-rule="nonzero" rx="1" ry="1.777"/>
                        <path fill="#000" fill-rule="nonzero" d="M43.499 44.752L45.754 45.808 43.499 48.565zM68.297 45.141L66.795 46.811 67.796 48.313 68.381 46.643z" opacity=".1"/>
                        <path fill="#6C63FF" fill-rule="nonzero" d="M56.971 36.99v1.447s-10.553-1.928-10.822-4.822l6.965.482 3.857 2.892z"/>
                        <path fill="#6C63FF" fill-rule="nonzero" d="M56.971 36.99v1.447s10.554-1.928 10.823-4.822l-6.965.482-3.858 2.892z"/>
                        <path fill="#000" fill-rule="nonzero" d="M121.472 52.693L156.187 60.89 143.651 66.194z" opacity=".1"/>
                        <path fill="#6C63FF" fill-rule="nonzero" d="M46.182 33.685s0-3.03 2.02-3.03c2.022 0 4.04 6.062 4.04 6.062l-6.06-3.032z"/>
                        <circle cx="2.204" cy="55.991" r="1.323" fill="#F55F44" fill-rule="nonzero" opacity=".5"/>
                        <circle cx="18.737" cy="87.074" r="1.323" fill="#F55F44" fill-rule="nonzero" opacity=".5"/>
                        <circle cx="159.598" cy="3.747" r="1.323" fill="#F55F44" fill-rule="nonzero" opacity=".5"/>
                        <path fill="#4D8AF0" fill-rule="nonzero" d="M95.868 4.62c-.377-.164-.572-.585-.452-.978.009-.03.015-.06.017-.09.011-.179-.097-.344-.265-.406-.169-.062-.358-.006-.465.137-.019.025-.034.052-.046.08-.165.376-.584.569-.976.45-.03-.009-.06-.015-.09-.017-.18-.01-.344.097-.406.265-.062.169-.006.358.137.465.025.019.052.034.08.046.374.166.565.585.446.976-.009.03-.015.06-.017.09-.01.18.097.344.265.406.169.062.358.006.466-.137.018-.025.033-.052.045-.08.164-.377.585-.571.978-.452.03.01.06.015.09.017.178.01.343-.096.405-.264.063-.167.008-.356-.134-.464-.024-.018-.05-.033-.078-.044zM160.897 85.08c-.377-.165-.572-.585-.452-.978.01-.03.015-.06.017-.09.011-.18-.097-.344-.265-.406-.169-.062-.358-.007-.465.137-.019.025-.034.052-.046.08-.164.377-.585.571-.978.452-.03-.01-.06-.015-.09-.017-.179-.011-.344.096-.406.265-.062.168-.006.357.137.465.025.019.052.034.08.046.377.164.572.585.452.978-.009.03-.015.06-.017.09-.011.179.097.344.265.406.169.062.358.006.465-.138.019-.024.034-.051.046-.08.164-.377.585-.57.978-.452.03.01.06.016.09.018.179.01.344-.097.406-.265.062-.169.006-.358-.137-.466-.025-.018-.052-.033-.08-.045z" opacity=".5"/>
                        <circle cx="111.983" cy="122.784" r="1.323" fill="#47E6B1" fill-rule="nonzero" opacity=".5"/>
                        <circle cx="2.204" cy="113.527" r="1.323" fill="#47E6B1" fill-rule="nonzero" opacity=".5"/>
                        <circle cx="108.015" cy="17.635" r="1.323" fill="#47E6B1" fill-rule="nonzero" opacity=".5"/>
                        <g fill="#47E6B1" fill-rule="nonzero" opacity=".5">
                            <path d="M1.542 0H2.542V3.747H1.542z"/>
                            <path d="M1.542 0H2.542V3.747H1.542z" transform="rotate(90 1.873 1.873)"/>
                        </g>
                        <g fill="#47E6B1" fill-rule="nonzero" opacity=".5">
                            <path d="M1.655 0.086H2.6550000000000002V3.8329999999999997H1.655z" transform="translate(12.012 35.845)"/>
                            <path d="M1.655 0.086H2.6550000000000002V3.8329999999999997H1.655z" transform="translate(12.012 35.845) rotate(90 1.986 1.96)"/>
                        </g>
                        <g fill="#47E6B1" fill-rule="nonzero" opacity=".5">
                            <path d="M1.632 0.01H2.6319999999999997V3.7569999999999997H1.632z" transform="translate(133.277 19.83)"/>
                            <path d="M1.634 0.01H2.634V3.7569999999999997H1.634z" transform="translate(133.277 19.83) rotate(90 1.965 1.883)"/>
                        </g>
                    </g>
                </g>
            </g>
        </g>
    </g>
</svg>
