<svg xmlns="http://www.w3.org/2000/svg" width="14" height="14" viewBox="0 0 14 14">
    <g fill="none" fill-rule="evenodd">
        <g fill="#FFF">
            <g>
                <g>
                    <path d="M1.791 78c-.246 0-.478.044-.697.13-.219.087-.406.208-.56.363-.164.155-.294.344-.39.567-.096.223-.144.467-.144.731v10.418c0 .265.048.509.144.732.096.223.226.412.39.567.154.155.341.276.56.362.219.087.451.13.697.13h10.418c.246 0 .479-.043.698-.13.218-.086.405-.207.56-.362.164-.155.294-.344.39-.567.096-.223.143-.467.143-.732V79.791c0-.264-.047-.508-.143-.731-.096-.223-.226-.412-.39-.567-.155-.155-.342-.276-.56-.363-.219-.086-.452-.13-.698-.13H1.791zm8.409 1.559h1.572c.082 0 .162.016.239.048.077.032.148.075.212.13.055.054.098.121.13.198.032.078.048.162.048.253v1.504c0 .091-.016.176-.048.253-.032.077-.075.143-.13.198-.064.064-.135.112-.212.143-.077.033-.157.048-.239.048H10.2c-.092 0-.176-.018-.253-.054-.078-.037-.144-.082-.199-.137-.063-.055-.111-.121-.143-.198-.032-.077-.048-.162-.048-.253v-1.504c0-.091.018-.175.055-.253.036-.077.082-.144.136-.198.055-.055.121-.098.199-.13.077-.032.161-.048.253-.048zm2.228 4.375l-.027 5.906c0 .073-.014.144-.041.212-.028.068-.064.126-.11.171-.054.046-.114.084-.177.116-.064.032-.137.048-.219.048H2.106c-.082 0-.155-.016-.219-.048s-.123-.07-.178-.116c-.045-.045-.082-.103-.109-.171-.027-.068-.041-.139-.041-.212v-5.906h1.285c-.027.091-.052.185-.075.28-.023.096-.039.194-.048.294-.018.11-.032.214-.041.315-.009.1-.014.205-.014.314 0 .583.114 1.13.342 1.641.228.51.538.957.93 1.34.401.382.866.683 1.394.902.529.219 1.094.328 1.696.328.601 0 1.166-.109 1.695-.328.529-.219.989-.52 1.381-.902.392-.383.702-.832.93-1.347.227-.515.341-1.06.341-1.634 0-.109-.004-.214-.013-.314l-.028-.315c-.018-.1-.038-.198-.061-.294-.023-.095-.048-.189-.075-.28h1.23zm-5.4-1.695c.383 0 .745.07 1.087.212.341.141.64.334.895.581.255.246.458.533.609.861.15.328.225.684.225 1.066 0 .374-.075.727-.225 1.06-.151.333-.354.622-.609.868s-.554.442-.895.588c-.342.146-.704.219-1.087.219-.392 0-.759-.071-1.101-.212-.342-.142-.64-.335-.895-.581-.256-.246-.458-.533-.609-.862-.15-.328-.225-.683-.225-1.066 0-.373.075-.727.225-1.059.151-.333.353-.623.609-.869.255-.246.553-.442.895-.588.342-.145.709-.218 1.101-.218z" transform="translate(-1093 -4337) translate(250 4254) translate(843 5)"/>
                </g>
            </g>
        </g>
    </g>
</svg>
