<svg xmlns="http://www.w3.org/2000/svg" width="66" height="46" viewBox="0 0 66 46">
    <g fill="none" fill-rule="evenodd">
        <g>
            <g>
                <g>
                    <g transform="translate(-649 -4438) translate(250 4254) translate(171 184) translate(228)">
                        <rect width="65" height="45" x=".5" y=".5" fill="#FFF" stroke="#E6E7E8" rx="4"/>
                        <path fill="#95BF3E" d="M49.38 20.71c-.27 0-.49-.215-.49-.48l.001-2.124h-.18c-1.117 0-1.532.182-1.532 1.182v2.342l-.001.014v.514l-.002.052v3.272c0 .4-.078.718-.24.965-.304.461-.907.671-1.872.672-.965-.001-1.568-.21-1.872-.672-.162-.247-.24-.565-.24-.965V22.21l-.002-.052v-.514l-.001-.014v-2.342c0-1-.415-1.182-1.533-1.182h-.351c-1.118 0-1.533.182-1.533 1.182v6.194c0 .996.228 1.84.67 2.52.853 1.317 2.505 2.02 4.853 2.02h.018c2.348 0 4-.703 4.853-2.02.441-.68.67-1.524.67-2.52V20.71h-1.217M53.638 17.255h-1.83c-.2 0-.361-.16-.361-.359V15.06c0-.198.162-.358.362-.358h1.83c.2 0 .361.161.361.36v1.835c0 .198-.162.358-.362.358M51.205 14.702h-1.22c-.133 0-.24-.107-.24-.24V13.24c0-.132.108-.239.241-.239h1.22c.133 0 .24.107.24.24v1.223c0 .132-.108.24-.24.24M20.921 21.924c0 1.489-.37 2.295-2.324 2.295H15.59v-3.84c0-.533.193-.731.712-.731h2.295c1.472 0 2.324.372 2.324 2.276zm-2.324-3.818h-2.593c-1.386 0-2.004.634-2.004 2.056v9.134c0 .549.172.725.707.725h.175c.536 0 .708-.176.708-.725v-3.554h3.007c2.67 0 3.914-1.213 3.914-3.818 0-2.604-1.244-3.818-3.914-3.818z"/>
                        <path fill="#95BF3E" d="M27.68 25.801v1.24c0 1.011-.394 1.596-2.406 1.596-1.328 0-1.974-.458-1.974-1.4 0-1.033.648-1.436 2.31-1.436h2.07zm-2.406-5.141c-1.096 0-1.783.13-2.044.18-.461.096-.654.216-.654.716v.143c0 .196.03.331.095.427.076.111.199.167.365.167.08 0 .174-.012.286-.04.263-.062 1.106-.192 2.027-.192 1.655 0 2.33.437 2.33 1.508v.955h-2.087c-2.683 0-3.932.862-3.932 2.713 0 1.795 1.29 2.784 3.633 2.784 2.784 0 4.026-.902 4.026-2.927V23.57c0-1.958-1.323-2.91-4.045-2.91zM38.601 20.824c-.116-.144-.335-.164-.554-.164h-.165c-.546 0-.761.167-.882.69l-1.52 6.28c-.19.773-.456.914-.912.914-.558 0-.782-.132-1.004-.916l-1.721-6.282c-.143-.526-.353-.686-.9-.686h-.146c-.221 0-.441.02-.554.166-.113.147-.075.366-.017.58l1.74 6.337c.326 1.213.714 2.216 2.163 2.216.27 0 .52-.037.729-.107-.44 1.375-.887 1.981-2.205 2.116-.268.022-.442.06-.539.19-.1.133-.077.325-.042.497l.037.162c.079.376.213.609.637.609.044 0 .092-.003.144-.007 1.968-.128 3.023-1.182 3.64-3.638l2.106-8.379c.05-.214.08-.433-.035-.578M50.965 16.405h-2.44c-.266 0-.482.213-.482.477v.337h.169c1.102 0 1.512.18 1.512 1.175v1.414h1.24c.266 0 .482-.213.482-.477v-2.448c.001-.264-.215-.478-.481-.478"/>
                    </g>
                </g>
            </g>
        </g>
    </g>
</svg>
