<svg xmlns="http://www.w3.org/2000/svg" width="66" height="46" viewBox="0 0 66 46">
    <g fill="none" fill-rule="evenodd">
        <g>
            <g>
                <g>
                    <g transform="translate(-953 -4438) translate(250 4254) translate(171 184) translate(532)">
                        <rect width="65" height="45" x=".5" y=".5" fill="#FFF" stroke="#E6E7E8" rx="4"/>
                        <path fill="#3395FF" fill-rule="nonzero" d="M6.881 20.345L6.382 22.179 9.235 20.334 7.369 27.296 9.264 27.297 12.021 17.015"/>
                        <path fill="#072654" fill-rule="nonzero" d="M3.81 24.37l-.785 2.927H6.91l1.59-5.953-4.689 3.027m13.491-2.577c-.095.353-.278.612-.55.778-.273.165-.654.248-1.148.248h-1.566l.55-2.05h1.566c.493 0 .831.082 1.015.25.183.167.228.423.133.778m1.622-.045c.2-.74.117-1.31-.247-1.708-.364-.396-1.003-.595-1.914-.595h-3.496L11.16 27.3h1.699l.848-3.164h1.114c.25 0 .447.042.59.12.144.083.229.225.255.431l.303 2.614h1.82l-.295-2.437c-.06-.544-.31-.864-.747-.959.558-.161 1.025-.43 1.402-.803.374-.371.64-.836.773-1.345m4.129 2.734c-.143.531-.361.933-.656 1.215-.296.282-.65.42-1.061.42-.42 0-.704-.135-.855-.41-.15-.276-.155-.675-.015-1.197s.363-.93.67-1.224c.306-.295.665-.442 1.077-.442.412 0 .693.143.836.425.145.284.149.69.006 1.219l-.002-.006zm.744-2.779l-.213.795c-.092-.285-.27-.513-.533-.684-.264-.168-.59-.253-.98-.253-.478 0-.937.123-1.377.37-.44.247-.826.595-1.155 1.044-.329.45-.57.96-.724 1.532-.152.576-.184 1.08-.092 1.516.095.44.294.775.601 1.01.31.237.706.354 1.19.354.385.002.765-.081 1.114-.244.345-.155.651-.384.899-.67l-.222.827h1.643l1.5-5.594H23.8l-.005-.003zm7.552 0h-4.776l-.334 1.247h2.78l-3.675 3.174-.314 1.171h4.93l.334-1.247h-2.977l3.73-3.221m4.506 1.645c-.148.551-.367.965-.656 1.235-.29.272-.64.408-1.052.408-.861 0-1.144-.548-.85-1.643.145-.544.365-.953.66-1.229.294-.276.65-.414 1.07-.414.411 0 .69.137.832.413.143.275.142.685-.004 1.23m.962-2.558c-.379-.236-.861-.353-1.45-.353-.596 0-1.147.117-1.655.35-.505.234-.95.581-1.297 1.015-.358.44-.615.956-.773 1.545-.155.586-.174 1.101-.054 1.542.12.44.374.778.753 1.012.383.237.87.354 1.469.354.588 0 1.136-.118 1.639-.354.503-.237.933-.573 1.291-1.016.358-.44.614-.955.772-1.544.158-.589.177-1.102.057-1.544-.12-.44-.37-.779-.747-1.014m5.858 1.29l.42-1.522c-.142-.072-.328-.11-.563-.11-.376 0-.737.093-1.085.281-.3.16-.554.386-.769.67l.218-.82-.476.002H38.95l-1.51 5.591h1.666l.783-2.923c.114-.425.319-.76.615-.997.294-.238.661-.357 1.104-.357.272 0 .525.062.766.187m4.636 1.3c-.142.522-.358.921-.652 1.196-.294.277-.649.415-1.06.415-.411 0-.693-.14-.842-.418-.152-.28-.155-.683-.012-1.214.142-.53.36-.936.661-1.218.3-.284.655-.426 1.066-.426.406 0 .678.146.823.44.146.295.149.703.01 1.225m1.164-2.576c-.309-.247-.703-.37-1.18-.37-.42 0-.818.095-1.197.286-.378.192-.685.453-.92.783l.005-.038.28-.889H43.53l-.415 1.548-.012.053-1.71 6.375h1.668l.861-3.209c.086.286.26.51.525.672.266.161.594.241.985.241.484 0 .946-.117 1.384-.351.44-.235.82-.573 1.143-1.01.322-.436.562-.943.715-1.515.155-.574.186-1.086.098-1.534-.09-.448-.29-.795-.598-1.04m5.527 2.551c-.143.529-.361.934-.655 1.212-.295.28-.65.42-1.06.42-.421 0-.706-.136-.855-.411-.152-.275-.155-.674-.016-1.196.14-.522.362-.93.669-1.225.307-.294.666-.441 1.078-.441.411 0 .69.142.835.424.146.283.147.689.005 1.218H53.7zm.743-2.78l-.213.795c-.091-.287-.269-.515-.531-.684-.266-.169-.592-.253-.981-.253-.478 0-.94.123-1.38.37-.44.247-.826.593-1.155 1.041-.33.448-.57.96-.725 1.532-.153.575-.183 1.08-.092 1.518.093.436.293.774.602 1.01.308.233.705.352 1.19.352.389 0 .76-.081 1.113-.244.345-.156.65-.385.897-.672l-.222.829h1.643l1.5-5.592h-1.643l-.003-.002zm8.54.002l.001-.001h-1.01l-.09.002h-.523l-.269.373-.066.089-.029.044-2.128 2.965-.44-3.472h-1.743l.883 5.276-1.95 2.699h1.738l.471-.669.042-.057.55-.781.016-.022 2.466-3.497 2.08-2.943.002-.002v-.004z"/>
                    </g>
                </g>
            </g>
        </g>
    </g>
</svg>
